<?xml version="1.0" standalone="no"?>
<!DOCTYPE svg PUBLIC "-//W3C//DTD SVG 20010904//EN"
 "http://www.w3.org/TR/2001/REC-SVG-20010904/DTD/svg10.dtd">
<svg version="1.0" xmlns="http://www.w3.org/2000/svg"
 width="130.000000pt" height="130.000000pt" viewBox="0 0 130.000000 130.000000"
 preserveAspectRatio="xMidYMid meet">

<g transform="translate(0.000000,130.000000) scale(0.100000,-0.100000)"
fill="#000000" stroke="none">
<path d="M570 1008 c-63 -32 -92 -85 -87 -160 6 -103 79 -164 183 -156 167 14
213 237 65 315 -56 29 -104 29 -161 1z"/>
<path d="M121 863 c-46 -23 -71 -67 -71 -125 0 -39 6 -54 31 -83 109 -124 299
8 221 154 -34 64 -113 87 -181 54z"/>
<path d="M1051 862 c-62 -33 -89 -119 -57 -180 47 -90 158 -103 225 -27 57 65
35 172 -42 208 -45 22 -84 21 -126 -1z"/>
<path d="M485 651 c-11 -5 -29 -19 -40 -31 -18 -20 -20 -39 -23 -186 l-3 -164
231 0 231 0 -3 165 -3 165 -28 27 c-27 28 -27 28 -185 30 -86 1 -166 -1 -177
-6z"/>
<path d="M29 561 c-23 -18 -24 -26 -27 -155 l-4 -136 186 0 186 0 0 114 c0 63
-5 127 -10 142 -19 49 -35 53 -176 54 -115 0 -135 -2 -155 -19z"/>
<path d="M968 566 c-29 -22 -38 -63 -38 -182 l0 -114 186 0 186 0 -4 136 c-4
178 0 174 -182 174 -92 -1 -136 -5 -148 -14z"/>
</g>
</svg>
