<?xml version="1.0" standalone="no"?>
<!DOCTYPE svg PUBLIC "-//W3C//DTD SVG 20010904//EN"
 "http://www.w3.org/TR/2001/REC-SVG-20010904/DTD/svg10.dtd">
<svg version="1.0" xmlns="http://www.w3.org/2000/svg"
 width="200.000000pt" height="200.000000pt" viewBox="0 0 200.000000 200.000000"
 preserveAspectRatio="xMidYMid meet">

<g transform="translate(0.000000,200.000000) scale(0.100000,-0.100000)"
fill="#000000" stroke="none">
<path d="M888 1830 c-172 -31 -292 -94 -414 -215 -77 -76 -98 -105 -137 -185
-26 -52 -53 -120 -61 -150 l-13 -55 -58 -6 c-63 -7 -98 -28 -133 -79 -21 -31
-22 -43 -22 -205 0 -162 1 -174 23 -205 43 -64 68 -75 180 -78 92 -3 105 -2
130 18 l27 21 0 222 c0 259 10 323 70 443 70 143 205 253 365 299 79 23 221
23 300 0 213 -61 377 -232 420 -440 19 -92 21 -636 3 -699 -16 -55 -99 -138
-154 -154 -23 -7 -76 -12 -118 -12 -75 0 -78 1 -110 35 l-33 35 -152 0 c-85 0
-161 -5 -172 -10 -57 -31 -67 -167 -16 -218 27 -26 31 -27 165 -30 154 -4 203
7 223 51 11 24 16 25 128 29 103 3 122 7 171 32 116 59 185 168 197 307 l6 67
68 4 c74 6 120 27 153 71 20 27 21 41 21 212 0 170 -2 186 -21 211 -35 48 -68
65 -130 71 l-60 5 -17 66 c-38 143 -137 294 -255 388 -68 53 -193 116 -277
138 -73 20 -232 28 -297 16z"/>
<path d="M1074 1104 l-140 -146 -70 71 c-64 65 -73 71 -111 71 -34 0 -46 -6
-67 -31 -50 -59 -39 -83 110 -242 83 -89 118 -111 159 -101 13 3 84 70 157
147 241 258 228 242 228 282 0 49 -44 95 -92 95 -30 0 -47 -15 -174 -146z"/>
</g>
</svg>
