<?xml version="1.0" standalone="no"?>
<!DOCTYPE svg PUBLIC "-//W3C//DTD SVG 20010904//EN"
 "http://www.w3.org/TR/2001/REC-SVG-20010904/DTD/svg10.dtd">
<svg version="1.0" xmlns="http://www.w3.org/2000/svg"
 width="260.000000pt" height="280.000000pt" viewBox="0 0 260.000000 280.000000"
 preserveAspectRatio="xMidYMid meet">

<g transform="translate(0.000000,280.000000) scale(0.100000,-0.100000)"
fill="#000000" stroke="none">
<path d="M1134 2384 c-19 -19 -34 -39 -34 -44 0 -16 -58 -40 -97 -40 -56 0
-83 -23 -83 -69 0 -63 -18 -98 -71 -136 -56 -40 -60 -59 -29 -120 25 -50 25
-74 -1 -128 -28 -57 -20 -84 32 -120 44 -30 69 -77 69 -130 0 -43 26 -67 73
-67 56 0 84 -16 119 -65 39 -56 63 -63 116 -36 23 12 55 21 72 21 17 0 49 -9
72 -21 53 -27 77 -20 116 36 35 50 63 65 122 65 50 0 66 17 73 80 8 63 25 92
77 126 46 31 50 54 20 114 -11 22 -20 50 -20 62 0 13 9 40 20 61 29 55 26 80
-16 114 l-36 29 26 38 c46 68 28 148 -40 181 -42 20 -89 14 -127 -15 -22 -17
-29 -18 -51 -8 -15 6 -36 27 -47 45 -12 19 -31 41 -44 49 -20 13 -27 12 -76
-11 -67 -31 -71 -31 -137 0 -30 14 -56 25 -59 25 -3 0 -21 -16 -39 -36z m330
-117 c48 -22 56 -30 47 -41 -10 -12 -21 -10 -69 12 -48 23 -71 27 -142 27 -72
0 -94 -4 -147 -29 -108 -49 -181 -145 -203 -264 -28 -154 56 -313 200 -381 47
-22 69 -26 150 -26 81 0 103 4 150 26 73 34 136 100 173 179 27 57 31 75 31
159 1 63 5 96 13 98 15 5 27 -92 20 -165 -12 -114 -105 -245 -212 -298 -200
-97 -428 -17 -528 186 -29 59 -32 73 -32 160 1 117 25 186 91 259 88 97 170
132 304 128 79 -2 105 -7 154 -30z m259 1 c13 -17 17 -34 13 -50 -9 -35 -377
-510 -409 -528 -24 -13 -30 -13 -54 0 -29 16 -173 185 -198 232 -19 34 -7 70
30 94 23 15 30 15 55 3 16 -8 53 -44 83 -81 l55 -68 143 188 c184 242 185 244
228 240 23 -2 40 -12 54 -30z"/>
<path d="M690 1301 l-155 -26 0 -245 0 -245 125 -5 125 -6 235 -94 c157 -62
248 -93 273 -93 46 1 69 16 377 247 369 277 400 306 400 369 0 35 -40 89 -72
98 -52 14 -115 -13 -356 -153 -201 -117 -246 -147 -263 -177 -30 -53 -65 -74
-129 -79 -50 -3 -66 2 -180 57 -119 57 -153 81 -137 97 4 4 67 -20 140 -54 79
-37 145 -62 165 -62 99 0 154 100 100 180 -19 27 -60 50 -223 126 -141 66
-210 93 -235 93 -19 -1 -105 -13 -190 -28z"/>
<path d="M1544 1222 l-172 -87 16 -35 c9 -19 17 -36 18 -38 1 -2 93 50 204
114 203 118 220 134 140 133 -24 0 -90 -28 -206 -87z"/>
<path d="M633 95 c0 -27 2 -38 4 -22 2 15 8 27 13 27 5 0 11 -12 13 -27 4 -26
4 -26 6 5 1 22 -4 32 -13 32 -8 0 -17 8 -19 18 -3 9 -5 -5 -4 -33z"/>
<path d="M1132 95 c0 -27 2 -43 5 -35 3 8 13 24 22 35 15 18 15 19 -1 7 -14
-12 -17 -10 -21 15 -2 16 -4 6 -5 -22z"/>
<path d="M750 120 c-4 -25 1 -54 10 -63 4 -5 5 3 3 17 -4 19 -1 26 11 26 9 0
16 -8 16 -19 0 -11 4 -22 9 -25 5 -4 7 3 4 15 -3 12 -1 24 4 28 7 4 6 11 -3
19 -8 7 -14 8 -14 2 0 -14 -27 -13 -33 3 -4 8 -6 8 -7 -3z"/>
<path d="M978 117 c-7 -19 6 -60 20 -63 7 -1 8 0 2 3 -12 6 -13 40 -1 45 5 2
3 8 -4 15 -10 9 -14 9 -17 0z"/>
<path d="M1528 123 c7 -3 16 -2 19 1 4 3 -2 6 -13 5 -11 0 -14 -3 -6 -6z"/>
<path d="M1580 106 c-15 -29 -8 -56 15 -56 23 0 31 31 12 45 -12 9 -14 14 -5
23 7 7 8 12 2 12 -6 0 -16 -11 -24 -24z m22 -31 c0 -5 -5 -11 -11 -13 -6 -2
-11 4 -11 13 0 9 5 15 11 13 6 -2 11 -8 11 -13z"/>
<path d="M1647 123 c22 -4 22 -6 8 -33 -22 -42 -17 -51 5 -10 25 46 25 50 -7
49 -24 -2 -25 -2 -6 -6z"/>
<path d="M1702 105 c-22 -28 -23 -30 -5 -34 10 -2 21 -8 24 -13 10 -15 16 14
10 47 l-6 29 -23 -29z m14 -22 c-10 -10 -19 5 -10 18 6 11 8 11 12 0 2 -7 1
-15 -2 -18z"/>
<path d="M1757 123 c-12 -12 -7 -33 7 -33 26 0 28 -20 4 -29 -14 -6 -17 -10
-7 -10 8 -1 20 4 26 10 14 14 6 39 -13 39 -20 0 -17 18 4 23 14 4 14 5 1 6 -9
0 -19 -2 -22 -6z"/>
<path d="M1820 106 c-15 -29 -8 -56 15 -56 23 0 31 31 12 45 -12 9 -14 14 -5
23 7 7 8 12 2 12 -6 0 -16 -11 -24 -24z m22 -31 c0 -5 -5 -11 -11 -13 -6 -2
-11 4 -11 13 0 9 5 15 11 13 6 -2 11 -8 11 -13z"/>
<path d="M1887 123 c22 -4 22 -6 8 -33 -22 -42 -17 -51 5 -10 25 46 25 50 -7
49 -24 -2 -25 -2 -6 -6z"/>
<path d="M1937 123 c-12 -12 -7 -33 7 -33 26 0 28 -20 4 -29 -14 -6 -17 -10
-7 -10 8 -1 20 4 26 10 14 14 6 39 -13 39 -20 0 -17 18 4 23 14 4 14 5 1 6 -9
0 -19 -2 -22 -6z"/>
<path d="M2007 123 c22 -4 22 -6 8 -33 -22 -42 -17 -51 5 -10 25 46 25 50 -7
49 -24 -2 -25 -2 -6 -6z"/>
<path d="M580 93 c0 -10 4 -14 8 -8 4 6 11 13 16 18 5 4 2 7 -7 7 -10 0 -17
-8 -17 -17z"/>
<path d="M691 83 c-1 -27 3 -33 19 -33 16 0 20 6 19 33 -2 30 -2 30 -6 5 -6
-36 -20 -36 -26 0 -4 25 -4 25 -6 -5z"/>
<path d="M837 104 c-13 -13 -7 -24 14 -24 11 0 19 5 17 12 -5 14 -22 21 -31
12z"/>
<path d="M891 78 c2 -28 2 -29 6 -8 3 14 10 28 17 32 7 5 5 8 -6 8 -14 0 -18
-8 -17 -32z"/>
<path d="M930 93 c0 -10 4 -14 8 -8 4 6 11 13 16 18 5 4 2 7 -7 7 -10 0 -17
-8 -17 -17z"/>
<path d="M1024 95 c-8 -21 2 -45 20 -45 19 0 29 29 15 46 -15 18 -28 18 -35
-1z m31 -15 c0 -7 -6 -15 -12 -17 -8 -3 -13 4 -13 17 0 13 5 20 13 18 6 -3 12
-11 12 -18z"/>
<path d="M1084 95 c-8 -20 2 -45 18 -44 10 0 10 2 1 6 -7 2 -13 13 -13 23 0
10 6 21 13 23 9 4 9 6 -1 6 -7 1 -15 -6 -18 -14z"/>
<path d="M1224 95 c-8 -20 2 -45 18 -44 10 0 10 2 1 6 -7 2 -13 13 -13 23 0
10 6 21 13 23 9 4 9 6 -1 6 -7 1 -15 -6 -18 -14z"/>
<path d="M1277 103 c-11 -10 -8 -41 4 -49 16 -9 41 20 33 39 -6 17 -25 22 -37
10z m28 -23 c0 -7 -6 -15 -12 -17 -8 -3 -13 4 -13 17 0 13 5 20 13 18 6 -3 12
-11 12 -18z"/>
<path d="M1331 77 c2 -31 2 -31 6 -4 2 15 8 27 13 27 5 0 11 -12 13 -27 l4
-28 2 28 c0 15 5 27 10 27 5 0 12 -12 14 -27 4 -27 4 -27 6 4 1 29 -1 31 -34
31 -33 0 -35 -2 -34 -31z"/>
<path d="M1510 100 c0 -6 6 -10 14 -10 26 0 28 -20 4 -29 -15 -7 -17 -10 -7
-10 21 -1 40 21 31 35 -10 15 -42 25 -42 14z"/>
<path d="M592 65 c-11 -12 -10 -15 3 -15 8 0 15 7 15 15 0 18 -2 18 -18 0z"/>
<path d="M942 65 c-11 -12 -10 -15 3 -15 8 0 15 7 15 15 0 18 -2 18 -18 0z"/>
<path d="M1150 71 c0 -5 5 -13 10 -16 6 -3 10 -2 10 4 0 5 -4 13 -10 16 -5 3
-10 2 -10 -4z"/>
<path d="M838 58 c5 -5 16 -8 23 -6 8 3 3 7 -10 11 -17 4 -21 3 -13 -5z"/>
</g>
</svg>
