<?xml version="1.0" standalone="no"?>
<!DOCTYPE svg PUBLIC "-//W3C//DTD SVG 20010904//EN"
 "http://www.w3.org/TR/2001/REC-SVG-20010904/DTD/svg10.dtd">
<svg version="1.0" xmlns="http://www.w3.org/2000/svg"
 width="120.000000pt" height="120.000000pt" viewBox="0 0 120.000000 120.000000"
 preserveAspectRatio="xMidYMid meet">

<g transform="translate(0.000000,120.000000) scale(0.100000,-0.100000)"
fill="#000000" stroke="none">
<path d="M496 1177 c-15 -15 -25 -41 -30 -74 -6 -48 -8 -51 -50 -67 l-45 -17
-42 30 c-60 44 -81 41 -150 -26 -71 -67 -76 -97 -29 -161 l30 -41 -19 -44
c-18 -42 -22 -44 -70 -51 -72 -10 -91 -36 -91 -133 0 -92 19 -116 97 -127 48
-6 51 -8 67 -50 l17 -45 -30 -42 c-44 -60 -41 -81 26 -150 67 -71 96 -76 160
-29 40 29 40 29 81 13 36 -14 42 -21 48 -52 15 -94 35 -111 134 -111 101 0
112 9 134 121 4 19 17 30 47 42 41 16 42 16 84 -13 65 -45 89 -40 157 27 68
68 73 93 28 158 -29 42 -29 43 -13 84 12 30 23 43 42 47 112 22 121 32 121
137 0 91 -13 109 -86 125 -58 13 -62 15 -77 54 -16 40 -16 41 13 83 45 65 40
89 -27 157 -68 69 -94 73 -157 28 l-42 -31 -46 20 c-43 18 -45 21 -52 70 -10
72 -36 91 -133 91 -64 0 -77 -3 -97 -23z m169 -89 c3 -24 9 -51 11 -61 5 -17
122 -77 150 -77 8 0 36 16 62 35 l48 34 42 -42 42 -42 -35 -49 c-19 -27 -35
-55 -35 -61 0 -7 13 -42 30 -78 25 -55 34 -66 60 -71 16 -3 44 -9 60 -12 29
-5 30 -7 30 -64 0 -57 -1 -59 -30 -64 -16 -3 -44 -9 -60 -12 -26 -5 -35 -16
-60 -71 -17 -36 -30 -71 -30 -78 0 -7 13 -30 28 -51 15 -21 31 -44 35 -50 3
-6 -13 -29 -36 -52 l-42 -42 -49 35 c-27 19 -55 35 -61 35 -7 0 -42 -13 -78
-30 -55 -25 -66 -34 -71 -60 -3 -16 -9 -44 -12 -60 -5 -29 -7 -30 -64 -30 -57
0 -59 1 -64 30 -3 16 -9 44 -12 60 -5 26 -16 35 -71 60 -36 17 -70 30 -76 30
-5 0 -32 -16 -60 -36 l-49 -36 -39 38 c-22 21 -39 42 -39 47 0 4 14 28 30 52
17 24 30 51 30 59 0 13 -21 66 -50 126 -4 9 -32 19 -66 25 l-59 11 -3 61 -3
61 56 7 c57 8 85 24 85 51 0 8 9 32 20 54 27 52 26 60 -16 114 l-36 48 38 39
c21 21 42 39 47 39 4 0 28 -13 52 -30 24 -16 51 -30 59 -30 13 0 68 22 126 50
8 4 18 25 23 46 4 21 10 49 13 62 4 20 10 22 63 22 l59 0 7 -42z"/>
<path d="M516 844 c-94 -29 -176 -143 -176 -244 0 -49 29 -126 63 -166 131
-152 386 -101 442 90 19 63 19 90 -1 155 -21 73 -92 144 -165 165 -64 19 -99
19 -163 0z m192 -86 c118 -79 105 -266 -23 -328 -61 -30 -137 -25 -193 13
-116 76 -105 263 20 326 59 30 140 25 196 -11z"/>
</g>
</svg>
